<svg xmlns="http://www.w3.org/2000/svg" xmlns:xlink="http://www.w3.org/1999/xlink" version="1.1" x="0px" y="0px" viewBox="0 0 100 125" enable-background="new 0 0 100 100" xml:space="preserve"><g><path d="M87.618,67.781c0.035-0.127,0.06-0.258,0.06-0.396c0-4.298-3.497-7.795-7.795-7.795H57.285l-0.029-20.498   c0-0.073-0.027-0.137-0.042-0.205c0.557-0.86,0.949-1.81,1.163-2.812c4.73-2.251,8.396-6.315,10.097-11.292   c0.108-0.315,0.108-0.656,0-0.971c-0.864-2.528-2.218-4.787-3.925-6.694c0.361-0.965,0.553-1.953,0.553-2.944   c0-3.053-1.646-5.903-4.297-7.438c-0.465-0.27-1.039-0.27-1.504,0c-1.809,1.048-3.154,2.727-3.82,4.672   c-1.741-0.508-3.567-0.791-5.445-0.791c-1.879,0-3.706,0.283-5.447,0.791c-0.664-1.948-2.01-3.625-3.821-4.673   c-0.465-0.269-1.039-0.269-1.503,0c-2.65,1.535-4.297,4.385-4.297,7.438c0,1.001,0.192,1.987,0.553,2.944   c-1.707,1.908-3.059,4.166-3.923,6.695c-0.107,0.314-0.107,0.656,0,0.97c1.708,4.997,5.411,9.099,10.177,11.34   c0.208,0.939,0.579,1.815,1.069,2.61c-0.042,0.111-0.071,0.229-0.071,0.354l0.029,20.504H20.924c-4.298,0-7.795,3.497-7.795,7.795   c0,0.14,0.025,0.273,0.062,0.401c-0.028,0.2-0.062,0.398-0.062,0.606c0,2.443,1.988,4.432,4.433,4.432s4.433-1.988,4.433-4.432   c0-2.438-1.979-4.423-4.417-4.432c0.865-0.846,2.044-1.371,3.346-1.371h58.959c1.302,0,2.481,0.525,3.346,1.371   c-2.435,0.01-4.414,1.993-4.414,4.432c0,2.443,1.988,4.432,4.432,4.432c2.444,0,4.434-1.988,4.434-4.432   C87.68,68.184,87.646,67.983,87.618,67.781z M18.994,68.393c0,0.789-0.643,1.432-1.433,1.432s-1.433-0.643-1.433-1.432   c0-0.79,0.643-1.434,1.433-1.434S18.994,67.603,18.994,68.393z M49.954,36.855c1.084,1.427,2.702,2.3,3.823,2.766   c-1.07,0.747-2.339,1.155-3.672,1.162c-0.011,0-0.022,0-0.034,0c-1.378,0-2.656-0.436-3.709-1.172   C47.417,39.145,48.934,38.273,49.954,36.855z M55.268,47.13c-0.713,0.821-3.802,3.913-10.478,5.052l-0.006-4.52   c5.308-0.841,8.652-2.836,10.478-4.323L55.268,47.13z M44.793,54.205c5.312-0.844,8.654-2.843,10.479-4.33l0.005,3.789   c-0.689,0.8-3.771,3.915-10.477,5.062L44.793,54.205z M50.07,42.783c0.015,0,0.03,0,0.045,0c1.319-0.007,2.587-0.32,3.735-0.892   c-1.602,1.262-4.509,2.968-9.069,3.747l-0.007-4.717C46.229,42.084,48.069,42.783,50.07,42.783z M55.28,56.413l0.005,3.177h-5.834   C52.159,58.631,54.063,57.407,55.28,56.413z M60.054,9.854c1.281,1.055,2.048,2.641,2.048,4.32c0,0.036,0,0.072-0.001,0.107   c-1.173-0.714-2.455-1.343-3.804-1.863C58.629,11.418,59.239,10.526,60.054,9.854z M40.015,9.854   c0.828,0.683,1.441,1.593,1.769,2.613c-0.258,0.121-0.516,0.243-0.768,0.375c-1.067,0.487-2.092,1.04-3.035,1.705   c-0.009-0.124-0.014-0.248-0.014-0.373C37.967,12.494,38.734,10.908,40.015,9.854z M34.609,24.296   c1.482-3.935,4.371-7.058,7.968-8.887c0.458-0.197,0.922-0.384,1.405-0.542c0.179-0.059,0.336-0.152,0.475-0.265   c1.757-0.633,3.636-0.985,5.578-0.985c2.026,0,3.985,0.38,5.807,1.067c0.083,0.046,0.158,0.103,0.251,0.133   c0.215,0.07,0.42,0.156,0.632,0.232c3.952,1.76,7.149,5.037,8.736,9.248c-1.27,3.365-3.616,6.198-6.623,8.107l0.688-4.896   c0.077-0.547-0.305-1.053-0.852-1.129c-0.549-0.081-1.052,0.305-1.129,0.851l-0.892,6.354c-0.051,0.022-0.098,0.051-0.148,0.073   l0.104,0.243l-0.029,0.205c-0.007,0.048-0.01,0.096-0.01,0.145c0.007,1.391-0.426,2.713-1.225,3.821   c-0.647-0.204-2.854-1.001-3.932-2.621c1.057-0.002,1.914-0.859,1.914-1.916c0-1.059-0.859-1.917-1.918-1.917h-2.75   c-1.059,0-1.916,0.858-1.916,1.917c0,0.998,0.765,1.808,1.738,1.898c-1.004,1.635-3.083,2.442-3.679,2.644   c-0.766-1.06-1.225-2.355-1.233-3.759c0-0.048-0.004-0.096-0.011-0.143l-1.035-6.875c-0.082-0.546-0.597-0.924-1.138-0.84   c-0.546,0.082-0.922,0.591-0.84,1.138l0.728,4.835C38.249,30.521,35.883,27.671,34.609,24.296z M83.246,69.824   c-0.789,0-1.432-0.643-1.432-1.432c0-0.79,0.643-1.434,1.432-1.434c0.79,0,1.434,0.644,1.434,1.434   C84.68,69.182,84.036,69.824,83.246,69.824z"/><path d="M70.652,64.959c-11.064,0-18.431,2.896-20.624,3.884c-2.193-0.988-9.559-3.884-20.624-3.884c-0.829,0-1.5,0.672-1.5,1.5   s0.671,1.5,1.5,1.5c0.481,0,0.943,0.016,1.41,0.027c-0.001,0.024-0.007,0.048-0.007,0.073l0.047,25.533   c0.001,0.827,0.673,1.497,1.5,1.497c0.001,0,0.002,0,0.003,0c0.828-0.002,1.499-0.675,1.497-1.503l-0.047-25.461   c7.594,0.581,12.81,2.52,14.722,3.337V93.59c0,0.828,0.671,1.5,1.5,1.5s1.5-0.672,1.5-1.5V71.463   c1.955-0.836,7.364-2.834,15.224-3.366l0.047,25.445c0.002,0.827,0.673,1.497,1.5,1.497c0.001,0,0.002,0,0.003,0   c0.828-0.002,1.499-0.675,1.497-1.503l-0.047-25.533c0-0.009-0.003-0.018-0.003-0.026c0.303-0.005,0.595-0.018,0.903-0.018   c0.828,0,1.5-0.672,1.5-1.5S71.48,64.959,70.652,64.959z"/><path d="M56.234,24.076c0.231,0,0.462-0.033,0.685-0.098c0.838-0.244,1.491-0.927,1.707-1.783c0.044-0.175-0.01-0.36-0.141-0.484   c-0.638-0.606-1.558-0.836-2.396-0.591c-0.839,0.244-1.492,0.928-1.705,1.785c-0.043,0.174,0.011,0.358,0.141,0.482   C54.99,23.831,55.598,24.076,56.234,24.076z"/><path d="M43.149,23.978c0.224,0.065,0.454,0.098,0.685,0.098c0.637,0,1.244-0.245,1.71-0.69c0.13-0.124,0.183-0.308,0.14-0.482   c-0.213-0.856-0.866-1.541-1.705-1.785c-0.838-0.245-1.759-0.015-2.396,0.591c-0.13,0.124-0.184,0.309-0.14,0.484   C41.658,23.05,42.312,23.734,43.149,23.978z"/></g></svg>
